<svg version="1.1" viewBox="0.0 0.0 680.0 444.0" fill="none" stroke="none" stroke-linecap="square" stroke-miterlimit="10" xmlns:xlink="http://www.w3.org/1999/xlink" xmlns="http://www.w3.org/2000/svg"><clipPath id="p.0"><path d="m0 0l680.0 0l0 444.0l-680.0 0l0 -444.0z" clip-rule="nonzero"/></clipPath><g clip-path="url(#p.0)"><path fill="#000000" fill-opacity="0.0" d="m0 0l680.0 0l0 444.0l-680.0 0z" fill-rule="evenodd"/><path fill="#eee9d2" d="m9.575336 10.566389l0 411.89847l274.36234 0l0 -411.89847z" fill-rule="evenodd"/><path fill="#000000" fill-opacity="0.0" d="m37.78415 37.404037l49.38246 0l0 71.58093l-49.38246 0z" fill-rule="evenodd"/><path stroke="#4a494a" stroke-width="3.1076115485564304" stroke-miterlimit="18.795319" stroke-linecap="butt" d="m37.78415 37.404037l49.38246 0l0 71.58093l-49.38246 0z" fill-rule="evenodd"/><path fill="#000000" fill-opacity="0.0" d="m96.8528 51.829674l75.013504 0" fill-rule="evenodd"/><path stroke="#565656" stroke-width="3.1076115485564304" stroke-miterlimit="18.795319" stroke-linecap="round" d="m96.8528 51.829674l75.013504 0" fill-rule="evenodd"/><path fill="#000000" fill-opacity="0.0" d="m79.10596 63.93459c0 10.939472 -7.407364 19.724972 -16.557419 19.724972c-9.223469 0 -16.630836 -8.7855 -16.630836 -19.724972c0 -10.856987 7.4073677 -19.729557 16.630836 -19.729557c9.150055 0 16.557419 8.87257 16.557419 19.729557z" fill-rule="evenodd"/><path stroke="#4a494a" stroke-width="3.1076115485564304" stroke-miterlimit="18.795319" stroke-linecap="round" d="m79.10596 63.93459c0 10.939472 -7.407364 19.724972 -16.557419 19.724972c-9.223469 0 -16.630836 -8.7855 -16.630836 -19.724972c0 -10.856987 7.4073677 -19.729557 16.630836 -19.729557c9.150055 0 16.557419 8.87257 16.557419 19.729557z" fill-rule="evenodd"/><path fill="#000000" fill-opacity="0.0" d="m40.469574 108.89729l0 -6.4619446c0 -10.334526 7.117565 -18.776299 15.830982 -18.776299l12.565861 0c8.713417 0 15.761429 8.267624 15.761429 18.606735l0 6.4573593" fill-rule="evenodd"/><path stroke="#4a494a" stroke-width="3.1076115485564304" stroke-miterlimit="18.795319" stroke-linecap="butt" d="m40.469574 108.89729l0 -6.4619446c0 -10.334526 7.117565 -18.776299 15.830982 -18.776299l12.565861 0c8.713417 0 15.761429 8.267624 15.761429 18.606735l0 6.4573593" fill-rule="evenodd"/><path fill="#ffffff" d="m472.02048 104.43336l0 44.462425l174.43448 0l0 -44.462425z" fill-rule="evenodd"/><path stroke="#201f1d" stroke-width="3.1076115485564304" stroke-miterlimit="18.795319" stroke-linecap="butt" d="m472.02048 104.43336l0 44.462425l174.43448 0l0 -44.462425z" fill-rule="evenodd"/><path fill="#000000" fill-opacity="0.0" d="m483.28006 120.73531l33.342194 0m72.40094 14.313805l43.3125 0m-19.246948 -14.313805l26.693481 0m-115.14728 0l81.16217 0m-122.51706 14.002541l98.40079 0" fill-rule="evenodd"/><path stroke="#201f1d" stroke-width="3.1076115485564304" stroke-miterlimit="18.795319" stroke-linecap="round" d="m483.28006 120.73531l33.342194 0m72.40094 14.313805l43.3125 0m-19.246948 -14.313805l26.693481 0m-115.14728 0l81.16217 0m-122.51706 14.002541l98.40079 0" fill-rule="evenodd"/><path fill="#ffffff" d="m471.85043 65.90299l0 24.452576l96.88437 0l0 -24.452576z" fill-rule="evenodd"/><path stroke="#fbcb2c" stroke-width="3.1076115485564304" stroke-miterlimit="18.795319" stroke-linecap="butt" d="m471.85043 65.90299l0 24.452576l96.88437 0l0 -24.452576z" fill-rule="evenodd"/><path fill="#000000" fill-opacity="0.0" d="m480.43515 77.992325l77.88608 0" fill-rule="evenodd"/><path stroke="#fbcb2c" stroke-width="3.1076115485564304" stroke-miterlimit="18.795319" stroke-linecap="round" d="m480.43515 77.992325l77.88608 0" fill-rule="evenodd"/><path fill="#ffffff" d="m471.86627 16.181599l0 35.647552l79.647156 0l0 -35.647552z" fill-rule="evenodd"/><path stroke="#fbcb2c" stroke-width="3.1076115485564304" stroke-miterlimit="18.795319" stroke-linecap="butt" d="m471.86627 16.181599l0 35.647552l79.647156 0l0 -35.647552z" fill-rule="evenodd"/><path fill="#000000" fill-opacity="0.0" d="m478.81894 27.648579l31.891846 0m5.8424377 0l28.33496 0" fill-rule="evenodd"/><path stroke="#fbcb2c" stroke-width="3.1076115485564304" stroke-miterlimit="18.795319" stroke-linecap="round" d="m478.81894 27.648579l31.891846 0m5.8424377 0l28.33496 0" fill-rule="evenodd"/><path fill="#000000" fill-opacity="0.0" d="m478.81894 39.972576l59.76834 0" fill-rule="evenodd"/><path stroke="#fbcb2c" stroke-width="3.1076115485564304" stroke-miterlimit="18.795319" stroke-linecap="round" d="m478.81894 39.972576l59.76834 0" fill-rule="evenodd"/><path fill="#ffffff" d="m471.19757 335.24005l0 26.716492l120.35297 0l0 -26.716492z" fill-rule="evenodd"/><path stroke="#8c7424" stroke-width="3.1076115485564304" stroke-miterlimit="18.795319" stroke-linecap="butt" d="m471.19757 335.24005l0 26.716492l120.35297 0l0 -26.716492z" fill-rule="evenodd"/><path fill="#000000" fill-opacity="0.0" d="m479.19583 344.0945l19.911774 0m-19.911774 8.9704895l27.810516 0m0 -8.9704895l50.53058 0m-41.91284 8.931061l58.56128 0" fill-rule="evenodd"/><path stroke="#8c7424" stroke-width="3.1076115485564304" stroke-miterlimit="18.795319" stroke-linecap="round" d="m479.19583 344.0945l19.911774 0m-19.911774 8.9704895l27.810516 0m0 -8.9704895l50.53058 0m-41.91284 8.931061l58.56128 0" fill-rule="evenodd"/><path fill="#eee9d2" d="m26.503817 209.63866l0 61.583786l107.740555 0l0 -61.583786z" fill-rule="evenodd"/><path stroke="#565656" stroke-width="3.1076115485564304" stroke-miterlimit="18.795319" stroke-linecap="butt" d="m26.503817 209.63866l0 61.583786l107.740555 0l0 -61.583786z" fill-rule="evenodd"/><path fill="#000000" fill-opacity="0.0" d="m33.25566 226.37222l20.073067 0m-20.073067 27.963593l36.110374 0m27.587051 -13.64978l26.112663 0m-11.612511 -14.313812l16.083565 0m-69.3645 0l48.90322 0m-73.81986 13.961044l59.27263 0m-18.62925 14.041977l54.988243 0" fill-rule="evenodd"/><path stroke="#565656" stroke-width="3.1076115485564304" stroke-miterlimit="18.795319" stroke-linecap="round" d="m33.25566 226.37222l20.073067 0m-20.073067 27.963593l36.110374 0m27.587051 -13.64978l26.112663 0m-11.612511 -14.313812l16.083565 0m-69.3645 0l48.90322 0m-73.81986 13.961044l59.27263 0m-18.62925 14.041977l54.988243 0" fill-rule="evenodd"/><path fill="#ffffff" d="m472.11203 375.3766l0 41.810486l118.52591 0l0 -41.810486z" fill-rule="evenodd"/><path stroke="#8c7424" stroke-width="3.1076115485564304" stroke-miterlimit="18.795319" stroke-linecap="butt" d="m472.11203 375.3766l0 41.810486l118.52591 0l0 -41.810486z" fill-rule="evenodd"/><path fill="#000000" fill-opacity="0.0" d="m484.2562 402.9897l40.117096 0m6.9539185 0l47.69104 0m-94.762054 -12.948395l85.098785 0" fill-rule="evenodd"/><path stroke="#8c7424" stroke-width="3.1076115485564304" stroke-miterlimit="18.795319" stroke-linecap="round" d="m484.2562 402.9897l40.117096 0m6.9539185 0l47.69104 0m-94.762054 -12.948395l85.098785 0" fill-rule="evenodd"/><path fill="#000000" fill-opacity="0.0" d="m188.07642 51.829674l75.01352 0" fill-rule="evenodd"/><path stroke="#565656" stroke-width="3.1076115485564304" stroke-miterlimit="18.7953" stroke-linecap="round" d="m188.07642 51.829674l75.01352 0" fill-rule="evenodd"/><path fill="#000000" fill-opacity="0.0" d="m27.195831 141.21028l234.74014 -0.4094391" fill-rule="evenodd"/><path stroke="#565656" stroke-width="3.1076115485564304" stroke-miterlimit="8.0" stroke-linecap="round" d="m27.195831 141.21028l234.74014 -0.4094391" fill-rule="evenodd"/><path fill="#000000" fill-opacity="0.0" d="m26.502823 152.71461l224.85039 0.75590515" fill-rule="evenodd"/><path stroke="#565656" stroke-width="3.1076115485564304" stroke-miterlimit="8.0" stroke-linecap="round" d="m26.502823 152.71461l224.85039 0.75590515" fill-rule="evenodd"/><path fill="#000000" fill-opacity="0.0" d="m37.09075 165.36441l224.85037 0.75590515" fill-rule="evenodd"/><path stroke="#565656" stroke-width="3.1076115485564304" stroke-miterlimit="8.0" stroke-linecap="round" d="m37.09075 165.36441l224.85037 0.75590515" fill-rule="evenodd"/><path fill="#000000" fill-opacity="0.0" d="m37.09075 178.01419l224.85037 0.75590515" fill-rule="evenodd"/><path stroke="#565656" stroke-width="3.1076115485564304" stroke-miterlimit="8.0" stroke-linecap="round" d="m37.09075 178.01419l224.85037 0.75590515" fill-rule="evenodd"/><path fill="#000000" fill-opacity="0.0" d="m37.09075 190.66397l224.85037 0.75590515" fill-rule="evenodd"/><path stroke="#565656" stroke-width="3.1076115485564304" stroke-miterlimit="8.0" stroke-linecap="round" d="m37.09075 190.66397l224.85037 0.75590515" fill-rule="evenodd"/><path fill="#000000" fill-opacity="0.0" d="m37.09075 121.09016l224.85037 0.75590515" fill-rule="evenodd"/><path stroke="#565656" stroke-width="3.1076115485564304" stroke-miterlimit="8.0" stroke-linecap="round" d="m37.09075 121.09016l224.85037 0.75590515" fill-rule="evenodd"/><path fill="#000000" fill-opacity="0.0" d="m96.55579 97.88228l168.50394 0.75590515" fill-rule="evenodd"/><path stroke="#565656" stroke-width="3.1076115485564304" stroke-miterlimit="8.0" stroke-linecap="round" d="m96.55579 97.88228l168.50394 0.75590515" fill-rule="evenodd"/><path fill="#eee9d2" d="m158.85292 209.63866l0 61.583786l107.740555 0l0 -61.583786z" fill-rule="evenodd"/><path stroke="#565656" stroke-width="3.1076115485564304" stroke-miterlimit="18.7953" stroke-linecap="butt" d="m158.85292 209.63866l0 61.583786l107.740555 0l0 -61.583786z" fill-rule="evenodd"/><path fill="#000000" fill-opacity="0.0" d="m165.60477 226.37222l20.073074 0m-20.073074 27.963593l36.110382 0m27.587051 -13.64978l26.112656 0m-11.612503 -14.313812l16.083572 0m-69.36452 0l48.90323 0m-73.81987 13.961044l59.27263 0m-18.629242 14.041977l54.988235 0" fill-rule="evenodd"/><path stroke="#565656" stroke-width="3.1076115485564304" stroke-miterlimit="18.7953" stroke-linecap="round" d="m165.60477 226.37222l20.073074 0m-20.073074 27.963593l36.110382 0m27.587051 -13.64978l26.112656 0m-11.612503 -14.313812l16.083572 0m-69.36452 0l48.90323 0m-73.81987 13.961044l59.27263 0m-18.629242 14.041977l54.988235 0" fill-rule="evenodd"/><path fill="#eee9d2" d="m27.140396 289.45547l0 51.250458l239.4258 0l0 -51.250458z" fill-rule="evenodd"/><path stroke="#565656" stroke-width="3.1076115485564304" stroke-miterlimit="18.7953" stroke-linecap="butt" d="m27.140396 289.45547l0 51.250458l239.4258 0l0 -51.250458z" fill-rule="evenodd"/><path fill="#000000" fill-opacity="0.0" d="m42.595036 308.24518l45.764942 0m99.37626 16.499054l59.450012 0m-26.418045 -16.499054l36.639053 0m-158.04916 0l111.40174 0m-168.1648 16.14029l135.06322 0" fill-rule="evenodd"/><path stroke="#565656" stroke-width="3.1076115485564304" stroke-miterlimit="18.7953" stroke-linecap="round" d="m42.595036 308.24518l45.764942 0m99.37626 16.499054l59.450012 0m-26.418045 -16.499054l36.639053 0m-158.04916 0l111.40174 0m-168.1648 16.14029l135.06322 0" fill-rule="evenodd"/><path fill="#000000" fill-opacity="0.0" d="m37.09075 355.11118l224.85037 0.7559204" fill-rule="evenodd"/><path stroke="#565656" stroke-width="3.1076115485564304" stroke-miterlimit="8.0" stroke-linecap="round" d="m37.09075 355.11118l224.85037 0.7559204" fill-rule="evenodd"/><path fill="#000000" fill-opacity="0.0" d="m37.09075 367.761l224.85037 0.7558899" fill-rule="evenodd"/><path stroke="#565656" stroke-width="3.1076115485564304" stroke-miterlimit="8.0" stroke-linecap="round" d="m37.09075 367.761l224.85037 0.7558899" fill-rule="evenodd"/><path fill="#000000" fill-opacity="0.0" d="m21.208858 380.41077l224.85039 0.7558899" fill-rule="evenodd"/><path stroke="#565656" stroke-width="3.1076115485564304" stroke-miterlimit="8.0" stroke-linecap="round" d="m21.208858 380.41077l224.85039 0.7558899" fill-rule="evenodd"/><path fill="#000000" fill-opacity="0.0" d="m42.384716 393.06055l224.85039 0.7558899" fill-rule="evenodd"/><path stroke="#565656" stroke-width="3.1076115485564304" stroke-miterlimit="8.0" stroke-linecap="round" d="m42.384716 393.06055l224.85039 0.7558899" fill-rule="evenodd"/><path fill="#000000" fill-opacity="0.0" d="m31.796787 405.71033l224.8504 0.7559204" fill-rule="evenodd"/><path stroke="#565656" stroke-width="3.1076115485564304" stroke-miterlimit="8.0" stroke-linecap="round" d="m31.796787 405.71033l224.8504 0.7559204" fill-rule="evenodd"/><path fill="#000000" fill-opacity="0.0" d="m96.55579 85.2325l168.50394 0.75590515" fill-rule="evenodd"/><path stroke="#565656" stroke-width="3.1076115485564304" stroke-miterlimit="8.0" stroke-linecap="round" d="m96.55579 85.2325l168.50394 0.75590515" fill-rule="evenodd"/><path fill="#000000" fill-opacity="0.0" d="m96.55579 72.58271l168.50394 0.75590515" fill-rule="evenodd"/><path stroke="#565656" stroke-width="3.1076115485564304" stroke-miterlimit="8.0" stroke-linecap="round" d="m96.55579 72.58271l168.50394 0.75590515" fill-rule="evenodd"/><path fill="#ffffff" d="m472.02048 161.35739l0 44.462433l174.43448 0l0 -44.462433z" fill-rule="evenodd"/><path stroke="#201f1d" stroke-width="3.1076115485564304" stroke-miterlimit="18.7953" stroke-linecap="butt" d="m472.02048 161.35739l0 44.462433l174.43448 0l0 -44.462433z" fill-rule="evenodd"/><path fill="#000000" fill-opacity="0.0" d="m483.28006 177.65935l33.342194 0m72.40094 14.313797l43.3125 0m-19.246948 -14.313797l26.693481 0m-115.14728 0l81.16217 0m-122.51706 14.002548l98.40079 0" fill-rule="evenodd"/><path stroke="#201f1d" stroke-width="3.1076115485564304" stroke-miterlimit="18.7953" stroke-linecap="round" d="m483.28006 177.65935l33.342194 0m72.40094 14.313797l43.3125 0m-19.246948 -14.313797l26.693481 0m-115.14728 0l81.16217 0m-122.51706 14.002548l98.40079 0" fill-rule="evenodd"/><path fill="#ffffff" d="m472.02048 218.28143l0 44.462433l174.43448 0l0 -44.462433z" fill-rule="evenodd"/><path stroke="#201f1d" stroke-width="3.1076115485564304" stroke-miterlimit="18.7953" stroke-linecap="butt" d="m472.02048 218.28143l0 44.462433l174.43448 0l0 -44.462433z" fill-rule="evenodd"/><path fill="#000000" fill-opacity="0.0" d="m483.28006 234.58339l33.342194 0m72.40094 14.313797l43.3125 0m-19.246948 -14.313797l26.693481 0m-115.14728 0l81.16217 0m-122.51706 14.002533l98.40079 0" fill-rule="evenodd"/><path stroke="#201f1d" stroke-width="3.1076115485564304" stroke-miterlimit="18.7953" stroke-linecap="round" d="m483.28006 234.58339l33.342194 0m72.40094 14.313797l43.3125 0m-19.246948 -14.313797l26.693481 0m-115.14728 0l81.16217 0m-122.51706 14.002533l98.40079 0" fill-rule="evenodd"/><path fill="#ffffff" d="m471.19757 303.24832l0 18.526184l53.696716 0l0 -18.526184z" fill-rule="evenodd"/><path stroke="#8c7424" stroke-width="3.1076115485564304" stroke-miterlimit="18.7953" stroke-linecap="butt" d="m471.19757 303.24832l0 18.526184l53.696716 0l0 -18.526184z" fill-rule="evenodd"/><path fill="#000000" fill-opacity="0.0" d="m480.99002 312.95975l34.08017 0" fill-rule="evenodd"/><path stroke="#8c7424" stroke-width="3.1076115485564304" stroke-miterlimit="18.7953" stroke-linecap="round" d="m480.99002 312.95975l34.08017 0" fill-rule="evenodd"/><path fill="#ffffff" d="m471.19757 277.94873l0 18.526184l53.696716 0l0 -18.526184z" fill-rule="evenodd"/><path stroke="#8c7424" stroke-width="3.1076115485564304" stroke-miterlimit="18.7953" stroke-linecap="butt" d="m471.19757 277.94873l0 18.526184l53.696716 0l0 -18.526184z" fill-rule="evenodd"/><path fill="#000000" fill-opacity="0.0" d="m480.99002 287.6602l34.08017 0" fill-rule="evenodd"/><path stroke="#8c7424" stroke-width="3.1076115485564304" stroke-miterlimit="18.7953" stroke-linecap="round" d="m480.99002 287.6602l34.08017 0" fill-rule="evenodd"/><path fill="#000000" fill-opacity="0.0" d="m91.18541 40.463703l0 68.42761l181.30858 0l0 -68.42761z" fill-rule="evenodd"/><path stroke="#fbcb2c" stroke-width="3.1076115485564304" stroke-miterlimit="18.7953" stroke-linecap="butt" d="m91.18541 40.463703l0 68.42761l181.30858 0l0 -68.42761z" fill-rule="evenodd"/><path fill="#000000" fill-opacity="0.0" d="m21.208862 131.52994l0 146.40305l251.89636 0l0 -146.40305z" fill-rule="evenodd"/><path stroke="#201f1d" stroke-width="3.1076115485564304" stroke-miterlimit="18.7953" stroke-linecap="butt" d="m21.208862 131.52994l0 146.40305l251.89636 0l0 -146.40305z" fill-rule="evenodd"/><path fill="#000000" fill-opacity="0.0" d="m297.46765 221.65346l76.59842 0.09448242" fill-rule="evenodd"/><path stroke="#201f1d" stroke-width="4.0" stroke-linejoin="round" stroke-linecap="butt" d="m297.46765 221.65346l76.59842 0.09448242" fill-rule="evenodd"/><path fill="#000000" fill-opacity="0.0" d="m21.208858 283.3263l0 133.8489l251.89636 0l0 -133.8489z" fill-rule="evenodd"/><path stroke="#8c7424" stroke-width="3.1076115485564304" stroke-miterlimit="18.7953" stroke-linecap="butt" d="m21.208858 283.3263l0 133.8489l251.89636 0l0 -133.8489z" fill-rule="evenodd"/><path fill="#000000" fill-opacity="0.0" d="m461.2206 436.50488c-19.412598 0 -35.149597 -15.7369995 -35.149597 -35.149597l0 -144.4567c0 -19.412598 -15.73703 -35.149612 -35.149597 -35.149612l0 0c19.412567 0 35.149597 -15.737015 35.149597 -35.149597l0 -144.4567l0 0c0 -19.412592 15.7369995 -35.14961 35.149597 -35.14961z" fill-rule="evenodd"/><path fill="#000000" fill-opacity="0.0" d="m461.2206 436.50488c-19.412598 0 -35.149597 -15.7369995 -35.149597 -35.149597l0 -144.4567c0 -19.412598 -15.73703 -35.149612 -35.149597 -35.149612l0 0c19.412567 0 35.149597 -15.737015 35.149597 -35.149597l0 -144.4567l0 0c0 -19.412592 15.7369995 -35.14961 35.149597 -35.14961" fill-rule="evenodd"/><path stroke="#201f1d" stroke-width="4.0" stroke-linejoin="round" stroke-linecap="butt" d="m461.2206 436.50488c-19.412598 0 -35.149597 -15.7369995 -35.149597 -35.149597l0 -144.4567c0 -19.412598 -15.73703 -35.149612 -35.149597 -35.149612l0 0c19.412567 0 35.149597 -15.737015 35.149597 -35.149597l0 -144.4567l0 0c0 -19.412592 15.7369995 -35.14961 35.149597 -35.14961" fill-rule="evenodd"/><path fill="#000000" fill-opacity="0.0" d="m360.66174 238.27705l12.346466 -16.062988" fill-rule="evenodd"/><path stroke="#201f1d" stroke-width="4.0" stroke-linejoin="round" stroke-linecap="butt" d="m360.66174 238.27705l12.346466 -16.062988" fill-rule="evenodd"/><path fill="#000000" fill-opacity="0.0" d="m372.8945 221.17412l-11.433075 -16.314972" fill-rule="evenodd"/><path stroke="#201f1d" stroke-width="4.0" stroke-linejoin="round" stroke-linecap="butt" d="m372.8945 221.17412l-11.433075 -16.314972" fill-rule="evenodd"/></g></svg>